<svg width="20" height="25" viewBox="0 0 20 25" fill="none" xmlns="http://www.w3.org/2000/svg">
<path d="M19 10.4014C19 17.4014 10 23.4014 10 23.4014C10 23.4014 1 17.4014 1 10.4014C1 8.01442 1.94821 5.72523 3.63604 4.03741C5.32387 2.34958 7.61305 1.40137 10 1.40137C12.3869 1.40137 14.6761 2.34958 16.364 4.03741C18.0518 5.72523 19 8.01442 19 10.4014Z" stroke="#DB3559" stroke-width="2" stroke-linecap="round" stroke-linejoin="round"/>
<path d="M10 13.4014C11.6569 13.4014 13 12.0582 13 10.4014C13 8.74451 11.6569 7.40137 10 7.40137C8.34315 7.40137 7 8.74451 7 10.4014C7 12.0582 8.34315 13.4014 10 13.4014Z" stroke="#DB3559" stroke-width="2" stroke-linecap="round" stroke-linejoin="round"/>
</svg>
